<?xml version="1.0" encoding="UTF-8"?>
<!DOCTYPE svg PUBLIC "-//W3C//DTD SVG 1.1//EN" "http://www.w3.org/Graphics/SVG/1.1/DTD/svg11.dtd">
<!-- Creator: CorelDRAW 2019 (64-Bit) -->
<svg xmlns="http://www.w3.org/2000/svg" xml:space="preserve" width="445px" height="187px" version="1.1" style="shape-rendering:geometricPrecision; text-rendering:geometricPrecision; image-rendering:optimizeQuality; fill-rule:evenodd; clip-rule:evenodd"
viewBox="0 0 141.4 59.55"
 xmlns:xlink="http://www.w3.org/1999/xlink"
 xmlns:xodm="http://www.corel.com/coreldraw/odm/2003">
 <defs>
  <style type="text/css">
   <![CDATA[
    .fil0 {fill:#FEFEFE}
    .fil2 {fill:#F6B02E}
    .fil1 {fill:#29AB7E}
    .fil3 {fill:#FEFEFE;fill-rule:nonzero}
   ]]>
  </style>
 </defs>
 <g id="Layer_x0020_1">
  <metadata id="CorelCorpID_0Corel-Layer"/>
  <polygon class="fil0" points="46.01,27.21 59.67,13.61 59.67,40.74 57.73,38.97 57.73,18.32 51.28,24.73 51.28,32.21 54.62,28.9 54.62,22.63 56.37,20.9 56.37,37.65 "/>
  <path class="fil1" d="M61.87 19.46c0,0.5 0,0.65 0,1.02 0,0.5 0.19,0.8 0.53,1.15 1.58,1.65 2.92,2.85 4.56,4.48 0.55,0.54 0.55,0.37 0.57,-0.4 0.04,-0.58 0.06,-0.81 0.08,-1.33 0.02,-0.5 0,-0.63 -0.35,-0.98 -1.54,-1.54 -2.76,-2.77 -4.36,-4.38 -0.88,-0.87 -1.03,-0.79 -1.03,0.44l0 0z"/>
  <path class="fil2" d="M61.9 23.61c0,1.19 0,2.29 0,3.46 0,0.31 0.04,0.41 0.27,0.64 0.44,0.44 0.67,0.67 1.13,1.13 0.49,0.48 0.51,0.25 0.51,-0.42 0,-1.1 0,-1.89 0,-3 0,-0.19 0.02,-0.21 -0.11,-0.35 -0.52,-0.54 -1.03,-1.04 -1.55,-1.59 -0.23,-0.25 -0.25,-0.2 -0.25,0.13l0 0z"/>
  <path class="fil2" d="M65.83 27.69c0,1.21 0,2.3 0,3.48 0,0.32 0.06,0.42 0.27,0.65 0.44,0.44 0.67,0.67 1.16,1.12 0.46,0.46 0.48,0.23 0.5,-0.41 0,-1.11 -0.02,-1.9 -0.02,-3 0,-0.21 0.04,-0.21 -0.11,-0.36 -0.52,-0.54 -1.01,-1.04 -1.55,-1.58 -0.23,-0.25 -0.25,-0.23 -0.25,0.1l0 0z"/>
  <path class="fil2" d="M61.85 30.26c0,1.18 0,2.29 0,3.45 0,0.34 0.05,0.44 0.28,0.65 0.44,0.44 0.67,0.67 1.13,1.15 0.48,0.46 0.51,0.23 0.51,-0.44 0,-1.08 0,-1.88 0,-2.98 0,-0.21 0.04,-0.21 -0.11,-0.35 -0.52,-0.55 -1.03,-1.07 -1.55,-1.61 -0.24,-0.23 -0.26,-0.21 -0.26,0.13l0 0z"/>
  <polygon class="fil0" points="59.67,13.61 73.35,0 73.35,27.13 71.42,25.36 71.42,4.71 64.94,11.13 64.94,18.61 68.28,15.29 68.28,9.02 70.03,7.29 70.03,24.05 "/>
  <path class="fil1" d="M75.54 5.86c0.02,0.5 0.02,0.64 0.02,1.02 0,0.5 0.16,0.79 0.5,1.14 1.6,1.65 2.92,2.86 4.56,4.48 0.55,0.54 0.55,0.38 0.59,-0.39 0.02,-0.59 0.04,-0.82 0.06,-1.34 0.02,-0.5 0,-0.62 -0.35,-0.98 -1.54,-1.54 -2.76,-2.77 -4.35,-4.37 -0.87,-0.88 -1.03,-0.79 -1.03,0.44l0 0z"/>
  <path class="fil2" d="M75.56 10c0,1.19 0,2.29 0,3.46 0,0.31 0.06,0.42 0.27,0.65 0.44,0.43 0.67,0.66 1.16,1.12 0.46,0.48 0.48,0.25 0.48,-0.41 0.02,-1.11 0,-1.9 0,-3 0,-0.19 0.04,-0.21 -0.11,-0.36 -0.52,-0.54 -1.01,-1.04 -1.55,-1.58 -0.23,-0.25 -0.25,-0.21 -0.25,0.12l0 0z"/>
  <path class="fil2" d="M79.51 14.09c0,1.2 0,2.29 0,3.48 0,0.31 0.04,0.41 0.27,0.64 0.44,0.44 0.67,0.67 1.14,1.13 0.46,0.46 0.5,0.23 0.5,-0.42 0,-1.1 0,-1.9 0,-3 0,-0.21 0.02,-0.21 -0.13,-0.35 -0.5,-0.55 -1,-1.05 -1.53,-1.59 -0.23,-0.25 -0.25,-0.23 -0.25,0.11l0 0z"/>
  <path class="fil2" d="M75.51 16.65c0,1.19 0,2.29 0,3.46 0,0.33 0.07,0.44 0.28,0.64 0.44,0.44 0.69,0.67 1.15,1.15 0.47,0.46 0.51,0.23 0.51,-0.44 0,-1.08 0,-1.87 0,-2.98 0,-0.21 0.02,-0.21 -0.13,-0.35 -0.52,-0.54 -1.01,-1.06 -1.55,-1.61 -0.23,-0.23 -0.26,-0.2 -0.26,0.13l0 0z"/>
  <polygon class="fil0" points="73.66,27.46 87.33,13.86 87.33,40.99 85.39,39.2 85.39,18.57 78.94,24.96 78.94,32.47 82.28,29.15 82.28,22.88 84.03,21.13 84.03,37.9 "/>
  <path class="fil1" d="M89.53 19.69c0,0.5 0,0.67 0,1.04 0,0.48 0.19,0.77 0.53,1.13 1.57,1.67 2.92,2.87 4.56,4.5 0.55,0.54 0.55,0.35 0.57,-0.42 0.04,-0.58 0.06,-0.81 0.08,-1.33 0.02,-0.5 0,-0.63 -0.36,-0.98 -1.53,-1.54 -2.75,-2.75 -4.35,-4.36 -0.88,-0.87 -1.03,-0.79 -1.03,0.42l0 0z"/>
  <path class="fil2" d="M89.55 23.84c0,1.21 0,2.29 0,3.48 0,0.31 0.05,0.41 0.28,0.62 0.44,0.44 0.67,0.69 1.13,1.15 0.49,0.46 0.51,0.23 0.51,-0.42 0,-1.1 0,-1.89 0,-3 0,-0.21 0.02,-0.21 -0.11,-0.35 -0.52,-0.54 -1.03,-1.04 -1.55,-1.61 -0.24,-0.23 -0.26,-0.21 -0.26,0.13l0 0z"/>
  <path class="fil2" d="M93.48 27.94c0,1.19 0,2.3 0,3.46 0,0.34 0.07,0.44 0.28,0.65 0.44,0.44 0.67,0.66 1.15,1.14 0.47,0.46 0.49,0.23 0.49,-0.43 0.02,-1.09 0,-1.88 0,-2.98 0,-0.21 0.04,-0.23 -0.11,-0.38 -0.52,-0.52 -1.01,-1.04 -1.55,-1.58 -0.24,-0.23 -0.26,-0.21 -0.26,0.12l0 0z"/>
  <path class="fil2" d="M89.51 30.49c0,1.2 0,2.29 0,3.47 0,0.32 0.04,0.42 0.28,0.65 0.44,0.44 0.67,0.67 1.13,1.13 0.48,0.48 0.5,0.23 0.5,-0.42 0,-1.1 0,-1.9 0,-3 0,-0.21 0.03,-0.21 -0.1,-0.35 -0.53,-0.55 -1.03,-1.05 -1.56,-1.59 -0.23,-0.25 -0.25,-0.23 -0.25,0.11l0 0z"/>
  <g>
   <path class="fil3" d="M136.28 48.38l1.89 0 -1.89 0zm-1.81 0l1.32 0 -1.32 0zm-0.38 6.42l1.47 -3.54 1.45 3.54 -2.92 0zm7.31 4.57l0 -0.01 -4.52 -10.54 1.29 0 0 -0.44 -1.89 0 3.84 9.34 -0.4 0.15 -3.93 -9.49 -1.32 0 -4.71 10.99 2.46 0 1.01 -2.46 4.64 0 1.01 2.46 2.52 0z"/>
  </g>
  <path class="fil3" d="M122.3 57.99c0,0.02 2.65,1.17 4.14,0.36 0.63,-0.36 0.97,-0.73 1.11,-1.09 0.32,-0.73 -0.19,-1.71 -0.44,-2.44 0.53,0.94 1.41,1.34 0.84,2.61 -0.19,0.46 -0.59,0.89 -1.28,1.29 -1.7,0.94 -4.54,-0.31 -4.56,-0.31l0.19 -0.42zm2.5 1.52c2.37,0 4.03,-1.21 4.03,-3.37l0 -0.05c0,-1.89 -1.26,-2.68 -3.48,-3.27 -1.9,-0.48 -2.38,-0.71 -2.38,-1.41l0 -0.05c0,-0.52 0.48,-0.93 1.41,-0.93 0.92,0 1.89,0.39 2.86,1.06l1.26 -1.79c-1.12,-0.9 -2.48,-1.4 -4.08,-1.4 -2.25,0 -3.84,1.31 -3.84,3.29l0 0.02c0,2.17 1.42,2.78 3.63,3.34 1.85,0.48 2.21,0.77 2.21,1.39l0 0.03c0,0.64 -0.59,1.02 -1.58,1.02 -1.26,0 -2.29,-0.5 -3.28,-1.32l-2.01 2.34 0.37 0.31 0.57 -0.65c1.26,0.96 2.8,1.44 4.31,1.44l0 0z"/>
  <g>
   <path class="fil3" d="M114.16 48.38l1.94 0 -1.94 0zm-1.76 0l1.3 0 -1.3 0zm-0.38 6.42l1.47 -3.54 1.45 3.54 -2.92 0zm-4.33 4.57l2.46 0 1.01 -2.46 4.64 0 1.01 2.46 2.52 0 -4.51 -10.55 1.28 0 0 -0.44 -1.94 0 3.85 9.34 -0.4 0.15 -3.91 -9.49 -1.3 0 -4.71 10.99z"/>
  </g>
  <path class="fil3" d="M102.67 59.51c1.07,0 1.97,-0.27 2.63,-0.81l0 -8.77 0.44 0 0 8.33c0.52,-0.64 0.82,-1.54 0.82,-2.67l0 -6.68 1.22 0 0 -0.46 -3.7 0 0 7.02c0,1.27 -0.57,1.81 -1.47,1.81 -0.78,0 -1.39,-0.39 -2.02,-1.08l-1.52 1.69c0.76,0.87 1.88,1.62 3.6,1.62l0 0z"/>
  <g>
   <path class="fil3" d="M93.27 48.38l1.96 0 -1.96 0zm-1.74 0l1.28 0 -1.28 0zm-0.38 6.42l1.47 -3.54 1.45 3.54 -2.92 0zm-4.33 4.57l2.46 0 1.01 -2.46 4.64 0 1.01 2.46 2.52 0 -4.51 -10.55 1.28 0 0 -0.44 -1.96 0 3.85 9.34 -0.4 0.15 -3.91 -9.49 -1.28 0 -4.71 10.99z"/>
  </g>
  <path class="fil3" d="M78.84 53.76l0 -3.15 2.39 0c1.18,0 1.89,0.55 1.89,1.57l0 0.04c0,0.92 -0.67,1.54 -1.85,1.54l-2.43 0zm-2.42 5.61l0.73 0 0 -9.32 0.45 0 0 9.32 1.24 0 0 -3.5 1.89 0 2.35 3.5 2.84 0 -2.69 -3.9c1.38,-0.52 2.35,-1.63 2.35,-3.38l0 -0.04c0,-1.02 -0.33,-1.87 -0.94,-2.48 -0.72,-0.73 -1.81,-1.12 -3.2,-1.12l-5.02 0 0 10.46 -0.86 0 0 0.46 0.86 0z"/>
  <g>
   <path class="fil3" d="M69.67 48.38l1.81 0 -1.81 0zm-1.89 0l1.41 0 -1.41 0zm-0.38 6.42l1.45 -3.54 1.47 3.54 -2.92 0zm-4.35 4.57l2.48 0 0.99 -2.46 4.66 0 0.99 2.46 2.55 0 -4.52 -10.55 1.28 0 0 -0.44 -1.81 0 3.85 9.34 -0.4 0.15 -3.93 -9.49 -1.41 0 -4.73 10.99z"/>
  </g>
  <path class="fil3" d="M55.61 57.99c0.02,0 2.65,1.17 4.16,0.33 0.61,-0.33 0.95,-0.7 1.12,-1.06 0.31,-0.73 -0.21,-1.71 -0.44,-2.46 0.5,0.94 1.4,1.34 0.84,2.63 -0.19,0.44 -0.59,0.89 -1.31,1.29 -1.7,0.92 -4.54,-0.33 -4.54,-0.33l0.17 -0.4zm2.48 1.52c2.38,0 4.04,-1.21 4.04,-3.37l0 -0.05c0,-1.89 -1.26,-2.68 -3.49,-3.27 -1.89,-0.48 -2.36,-0.71 -2.36,-1.41l0 -0.05c0,-0.52 0.49,-0.93 1.41,-0.93 0.93,0 1.87,0.39 2.86,1.06l1.26 -1.79c-1.13,-0.9 -2.5,-1.4 -4.1,-1.4 -2.25,0 -3.84,1.31 -3.84,3.29l0 0.02c0,2.17 1.43,2.78 3.65,3.34 1.83,0.48 2.21,0.77 2.21,1.39l0 0.03c0,0.64 -0.59,1.02 -1.6,1.02 -1.24,0 -2.29,-0.5 -3.28,-1.32l-1.91 2.21 0.36 0.29 0.46 -0.52c1.26,0.98 2.82,1.46 4.33,1.46l0 0z"/>
  <polygon class="fil3" points="29.47,59.37 31.86,59.37 31.86,52.43 37.18,59.37 38.29,59.37 38.29,49.93 38.73,49.93 38.73,59.37 40.46,59.37 40.46,58.91 39.24,58.91 39.24,48.45 36.84,48.45 36.84,55.18 31.69,48.45 29.47,48.45 "/>
  <path class="fil3" d="M20.45 54.8l1.47 -3.54 1.45 3.54 -2.92 0zm-4.33 4.57l2.46 0 1.01 -2.46 4.64 0 1.01 2.46 2.52 0 -4.52 -10.55 1.29 0 0 -0.44 -1.79 0 3.85 9.34 -0.4 0.15 -3.91 -9.49 -1.45 0 -4.71 10.99z"/>
  <path class="fil3" d="M51.87 57.82l0 1.05 0.92 0 0 0.43 -1.11 0 0 -5.5 -3.82 0 0 0.44 3.38 0 0 5.06 -1.72 0 0 -0.14c-0.7,0.25 -1.5,0.39 -2.36,0.39 -3.42,0 -5.78,-2.39 -5.78,-5.6l0 -0.04c0,-3.11 2.44,-5.63 5.76,-5.63 2,0 3.17,0.52 4.33,1.48l-1.53 1.83c-0.84,-0.7 -1.6,-1.1 -2.86,-1.1 -1.77,0 -3.18,1.54 -3.18,3.4l0 0.02c0,2 1.39,3.46 3.35,3.46 0.88,0 1.66,-0.23 2.27,-0.65l0 -1.56 -2.44 0 0 -2.09 4.79 0 0 4.75z"/>
  <polygon class="fil3" points="3.76,59.43 5.86,59.43 8.34,52.3 10.82,59.43 14.1,59.43 14.1,58.99 13.07,58.99 16.69,48.45 15.95,48.45 12.88,57.76 12.46,57.62 15.49,48.45 14.14,48.45 11.87,55.84 9.42,48.43 7.33,48.43 4.88,55.84 2.59,48.45 0,48.45 "/>
 </g>
</svg>
