<?xml version="1.0" encoding="UTF-8"?>
<!DOCTYPE svg PUBLIC "-//W3C//DTD SVG 1.1//EN" "http://www.w3.org/Graphics/SVG/1.1/DTD/svg11.dtd">
<!-- Creator: CorelDRAW 2019 (64-Bit) -->
<svg xmlns="http://www.w3.org/2000/svg" xml:space="preserve" width="70px" height="46px" version="1.1" style="shape-rendering:geometricPrecision; text-rendering:geometricPrecision; image-rendering:optimizeQuality; fill-rule:evenodd; clip-rule:evenodd"
viewBox="0 0 6.7 4.4"
 xmlns:xlink="http://www.w3.org/1999/xlink"
 xmlns:xodm="http://www.corel.com/coreldraw/odm/2003">
 <defs>
  <style type="text/css">
   <![CDATA[
    .fil0 {fill:#EEEEEF}
    .fil1 {fill:#FEFEFE;fill-rule:nonzero}
   ]]>
  </style>
 </defs>
 <g id="Layer_x0020_1">
  <metadata id="CorelCorpID_0Corel-Layer"/>
  <g id="_1539351085488">
   <path class="fil0" d="M3.39 1.81c0.45,0.06 0.45,0.72 0,0.76l0 -0.76zm2.17 0.55l0.05 0.02c0.01,0 0.02,0 0.02,0 0,0 0.01,0 0.02,0 0.07,-0.18 0,-0.09 -0.01,-0.12 -0.12,0.06 -0.02,-0.01 -0.08,0.1zm0 -0.34c0.05,0.15 0,0.06 0.08,0.1 0.02,-0.03 0.06,0 0,-0.14l-0.08 0.04zm-4.49 0.38c0.04,-0.03 0.06,-0.01 0.05,-0.06 -0.01,-0.15 -0.04,-0.07 -0.08,-0.08 -0.03,0.07 -0.05,-0.07 -0.02,0.07 0.02,0.12 0.02,0.04 0.05,0.07zm-0.03 -0.28c0.04,-0.02 0.06,0.06 0.08,-0.07 0.01,-0.08 -0.03,-0.06 -0.08,-0.08 -0.01,0.01 -0.02,0.06 -0.02,0.07 0,0.13 -0.01,0.03 0.02,0.08zm5.36 -0.45l0.12 -0.02 0 1.08c-0.21,-0.02 -0.42,-0.05 -0.63,-0.07 -0.69,-0.08 -0.32,-0.02 -0.38,-0.17 -0.19,0.02 -0.11,0.08 -0.12,0.11l-0.14 -0.03c0,-0.17 -0.04,-0.65 0.02,-0.78 0.28,-0.03 -0.02,0.01 0.22,0.11 0.06,-0.09 0.04,-0.05 -0.01,-0.14l0.92 -0.09zm0.09 1.16c0.08,0.19 0.03,0.84 0.03,1.1l-0.33 -0.02c-0.81,0.01 -1.68,-0.89 -1.56,-1.91 0.11,-1.03 1.12,-1.7 1.91,-1.54l0 1.07c-0.75,0.24 -1.82,-0.07 -1.82,0.65 -0.01,0.44 0.33,0.48 0.7,0.52 0.36,0.04 0.72,0.08 1.07,0.13zm-3.2 -0.26c-0.42,-0.07 -0.48,-0.65 0,-0.77l0 0.77zm-1.76 -0.77c0.48,0.1 0.43,0.71 0,0.77l0 -0.77zm3.62 0.77c-0.44,-0.09 -0.47,-0.65 0,-0.77l0 0.77zm-4.99 -0.93l1.03 0.12c0.03,0.12 -0.11,-0.05 0,0.15 0.25,-0.11 -0.06,-0.15 0.22,-0.12 0.04,0.07 0.05,0.69 0,0.8 -0.28,0.04 0.02,-0.04 -0.19,-0.09 -0.15,-0.03 -0.02,0.06 -0.03,0.11l-1.04 0.12 0.01 -1.09zm-0.01 -1.2c0.67,0.01 1.01,0.14 1.38,0.5 0.77,0.74 0.67,1.93 -0.02,2.53 -0.38,0.32 -0.69,0.46 -1.35,0.47l0 -1.11c0.36,-0.03 0.74,-0.09 1.09,-0.13 0.38,-0.04 0.72,-0.09 0.72,-0.52 -0.01,-0.42 -0.33,-0.46 -0.72,-0.51 -0.37,-0.04 -0.73,-0.09 -1.1,-0.12l0 -1.11zm3.24 -0.27c0.45,-0.05 1.11,-0.01 1.58,-0.01 0.15,0 1.43,-0.05 1.57,0.04l-0.01 0.13c-0.3,0.11 -0.73,-0.1 -1.43,0.52 -0.55,0.48 -0.76,1.36 -0.39,2.14 0.1,0.21 0.27,0.45 0.41,0.56 0.64,0.55 0.98,0.4 1.42,0.5l-0.01 0.17 -3.14 -0.01 0 -1.53c0.56,-0.16 0.64,-0.79 0,-0.98l0 -1.53zm-1.84 0.65c-0.17,-0.14 -0.35,-0.27 -0.61,-0.37 -0.54,-0.2 -0.7,-0.01 -0.79,-0.15l0 -0.14 3.14 0 0 1.55c-0.58,0.1 -0.58,0.85 0,0.96l0 1.54 -3.01 0.01c-0.13,-0.01 -0.13,0.05 -0.13,-0.19 0.35,0 0.61,-0.02 0.91,-0.15 1.33,-0.61 1.41,-2.32 0.49,-3.06zm-1.5 3.52l6.6 0.01 0 -4.3 -6.6 0 0 4.29z"/>
   <path class="fil1" d="M3.4 1.76c0.02,0.01 0.05,0.01 0.08,0.02 -0.03,-0.01 -0.07,-0.03 -0.1,-0.04l-0.04 -0.01c0,-0.53 0,-1.07 0,-1.6l0.04 -0.01c0.32,-0.03 0.74,-0.02 1.13,-0.01 0.16,0 0.31,0 0.46,0l0.15 0c0.39,-0.01 1.32,-0.03 1.44,0.05l0.03 0.02 -0.01 0.18 -0.03 0.01c-0.03,0.01 -0.07,0.02 -0.1,0.03 0.03,0 0.06,0.01 0.1,0.01l0.03 0.01 0 1.14 -0.03 0.01c-0.07,0.03 -0.14,0.04 -0.22,0.06l0.07 -0.01 0.17 -0.02 0 1.18 -0.3 -0.03 0.26 0.04 0.01 0.02c0.05,0.15 0.04,0.53 0.04,0.83 -0.01,0.11 -0.01,0.21 -0.01,0.28l0 0.05 -0.27 -0.01c0.08,0.01 0.16,0.02 0.25,0.04l0.04 0.01 -0.01 0.25c-1.08,0 -2.16,0 -3.24,0l0.01 -1.62 0.03 -0.01c0.03,-0.01 0.05,-0.01 0.08,-0.02 -0.02,0 -0.04,0 -0.07,0.01l-0.05 0 0 -0.86 0.06 0zm0.27 0.14c0.02,0.03 0.05,0.07 0.06,0.11 0.03,0.06 0.05,0.13 0.04,0.19 0,0.07 -0.01,0.13 -0.04,0.19 0.04,-0.07 0.06,-0.13 0.06,-0.2 0,-0.07 -0.02,-0.15 -0.06,-0.22 -0.02,-0.02 -0.04,-0.05 -0.06,-0.07zm-0.02 0.14c-0.04,-0.08 -0.11,-0.15 -0.21,-0.17l0 0.64c0.1,-0.02 0.17,-0.08 0.2,-0.15 0.03,-0.05 0.04,-0.1 0.04,-0.16 0,-0.05 -0.01,-0.11 -0.03,-0.16zm1.97 0.29l0 0c0.01,-0.01 0.02,-0.01 0.03,-0.02 -0.01,0 -0.01,0.01 -0.02,0l-0.01 0.01 0 0.01zm-0.03 0.09l-0.1 -0.04 0.03 -0.05c0.01,-0.02 0.02,-0.01 0.02,-0.01l0 -0.01c-0.01,-0.01 -0.02,-0.02 0,-0.05 0.01,-0.01 0.01,-0.01 0.03,-0.02l0.08 -0.04 0.02 0.02c0,0 0.01,0 0.02,0 0.04,0.01 0.05,0.05 0,0.17l-0.01 0.03c-0.03,0 -0.05,0.01 -0.08,0.01l-0.01 -0.01zm0.02 -0.38l0.01 0.02 0.01 0.01 -0.01 -0.03 -0.01 0zm-0.07 0.07c-0.01,-0.01 -0.01,-0.03 -0.03,-0.08l-0.01 -0.03 0.16 -0.09 0.02 0.05c0.07,0.15 0.03,0.17 0,0.19l-0.01 0 -0.02 0.03 -0.03 -0.02c-0.01,0 -0.01,0 -0.01,0 -0.03,0.01 -0.04,0.01 -0.06,-0.02l0 0c-0.01,-0.01 -0.01,-0.01 -0.01,-0.03zm-4.47 0.23l0.01 0 -0.01 0c0,-0.04 0.04,-0.05 0.03,-0.04l0 0c-0.01,0 -0.02,0.01 -0.03,0.01l-0.01 0 0.01 0.01c0,0.01 -0.02,0.02 -0.03,0.02 0.01,0 0.02,0 0.03,0zm0.01 0l0 0 0 0 0 0zm0.01 0c0,0 0,0 0,0zm0.03 0.08c-0.01,0.01 -0.01,0.01 -0.02,0.01l-0.03 0.03 -0.02 -0.02 0 0c-0.04,0.01 -0.06,0 -0.08,-0.1l-0.07 -0.33 0.07 0.1 0 -0.07c0,-0.02 0.01,-0.05 0.02,-0.07l0.02 -0.06 0.05 0.02 0.02 0c0.06,0.02 0.1,0.03 0.09,0.12 -0.02,0.11 -0.05,0.13 -0.09,0.12 -0.01,0 -0.02,0 -0.03,0l0.01 -0.01 -0.04 0.01c0,0.01 -0.01,0.01 -0.01,0l0.01 0.04 0.04 0.01 -0.01 -0.01c0.01,0 0.02,-0.01 0.04,-0.01 0.04,0 0.07,0.02 0.08,0.13 0,0.07 -0.01,0.08 -0.05,0.09zm-0.06 -0.2l-0.01 -0.01 0.01 0.01zm0 -0.01l0 0.01c0,0 0,0 0,-0.01zm0 -0.14c0.02,0 0.03,0.01 0.04,0.01 0.01,0 -0.03,-0.01 -0.03,-0.04 0.01,-0.01 0,-0.01 0,-0.01l0 0.01 -0.01 0.03zm0 0.09l0 0 0 0zm0.03 -0.08c0,0 0,0 0,0zm5.39 -0.37c-0.3,0.04 -0.62,0.06 -0.92,0.09 0.01,0.01 0.01,0.02 0.01,0.03 0.01,0.03 0,0.04 -0.03,0.08l-0.03 0.05 -0.04 -0.01c-0.16,-0.07 -0.14,-0.14 -0.12,-0.17 0,0 -0.01,0.03 -0.04,0.05 -0.03,0.1 -0.03,0.37 -0.02,0.57l0.01 0.13 0.04 0.01c0,-0.04 0.03,-0.08 0.17,-0.1l0.03 0 0.02 0.03c0.01,0.05 0.01,0.08 0,0.11l0.54 0.06c0.12,0.01 0.25,0.03 0.37,0.04l0.01 -0.97zm-0.99 0.95c-0.02,0 -0.03,-0.01 -0.04,-0.01l-0.02 -0.01 -0.01 0.01 0.07 0.01zm-0.05 -0.1l0.02 -0.02c-0.02,0.01 -0.03,0.01 -0.03,0.01l0.01 0.01zm-0.04 0.09l-0.2 -0.04c0,-0.07 0,-0.14 0,-0.21l0 0.22c0.06,0.02 0.13,0.02 0.2,0.03zm-0.2 -0.75c0.01,-0.06 0.02,-0.1 0.03,-0.13l0.01 -0.02 0.02 0c0.07,-0.01 0.11,-0.02 0.14,-0.01l-0.01 -0.01 0.31 -0.04c-0.18,0.01 -0.35,0.03 -0.5,0.06l0 0.15zm0.24 -0.1l0 0.02c0,0 -0.01,0 0.04,0.03 0,-0.01 0,-0.01 0,-0.01 0,-0.01 0,0.01 0,0l-0.04 -0.04zm1.04 1.83c0.01,-0.27 0.02,-0.61 -0.02,-0.76l-0.51 -0.06 -0.53 -0.06c-0.19,-0.02 -0.38,-0.04 -0.51,-0.12 -0.15,-0.08 -0.24,-0.21 -0.24,-0.45 0,-0.52 0.49,-0.55 1.04,-0.58 0.26,-0.02 0.54,-0.03 0.78,-0.1l0 -1 -0.06 -0.01c-0.35,-0.04 -0.74,0.08 -1.07,0.33 -0.32,0.24 -0.58,0.6 -0.67,1.04 0,0.05 -0.01,0.09 -0.02,0.14 -0.01,0.07 -0.01,0.14 -0.01,0.21 0.01,0.42 0.19,0.82 0.45,1.11 0.26,0.3 0.6,0.5 0.94,0.54 0.05,0 0.09,0.01 0.14,0l0.29 0.02c0,-0.07 0,-0.15 0,-0.25zm-1.05 0.1c-0.14,-0.1 -0.28,-0.21 -0.39,-0.35 -0.21,-0.23 -0.36,-0.52 -0.43,-0.83 0.03,0.14 0.07,0.28 0.14,0.42 0.05,0.1 0.11,0.21 0.18,0.31 0.08,0.09 0.15,0.18 0.22,0.24 0.1,0.08 0.19,0.15 0.28,0.21zm-0.85 -1.75c0.01,-0.05 0.01,-0.09 0.02,-0.14 0.09,-0.44 0.35,-0.82 0.67,-1.07 -0.04,0.03 -0.09,0.07 -0.14,0.12 -0.28,0.24 -0.46,0.58 -0.53,0.96 -0.01,0.04 -0.01,0.09 -0.02,0.13zm0.46 -0.19c-0.16,0.07 -0.27,0.17 -0.27,0.37 0,-0.06 0.02,-0.12 0.05,-0.18 0.05,-0.08 0.12,-0.14 0.22,-0.19zm-0.27 0.44c0.01,0.17 0.08,0.26 0.18,0.32 0.02,0.01 0.04,0.02 0.06,0.03 -0.08,-0.04 -0.14,-0.1 -0.18,-0.16 -0.04,-0.06 -0.06,-0.12 -0.06,-0.19zm-1.49 0.39c-0.03,-0.01 -0.05,-0.01 -0.08,-0.02 0.03,0.01 0.07,0.02 0.1,0.03l0.04 0 -0.01 1.63c-0.8,0 -2.35,0.1 -3.06,0.01 -0.02,-0.01 -0.04,-0.01 -0.06,-0.01 -0.04,0.01 -0.06,0.01 -0.09,-0.03 -0.02,-0.03 -0.02,-0.08 -0.02,-0.2l0 -0.05 0.01 0 0 -1.2 0.05 0c0.24,-0.02 0.49,-0.05 0.73,-0.08l0.36 -0.04c0.08,-0.01 0.16,-0.02 0.23,-0.04l0 -0.24c0,0.1 -0.01,0.19 -0.03,0.23l-0.01 0.02 -0.03 0c-0.11,0.02 -0.15,0.01 -0.17,-0.01l0 0.04 -1.14 0.12 0.01 -1.19 -0.01 0 0 -1.19 0.1 0c-0.03,-0.01 -0.06,-0.04 -0.09,-0.08l-0.01 -0.01 0 -0.2c1.08,0 2.16,0 3.24,0 0,0.84 0,1.68 0,2.52l-0.06 -0.01zm-0.26 -0.14c-0.02,-0.02 -0.04,-0.04 -0.05,-0.07 -0.04,-0.06 -0.06,-0.14 -0.07,-0.21 0,-0.07 0.02,-0.15 0.06,-0.22 0.05,-0.1 0.16,-0.19 0.32,-0.22l0.01 0c-0.16,0.03 -0.27,0.11 -0.33,0.21 -0.04,0.07 -0.06,0.14 -0.06,0.21 0,0.08 0.02,0.15 0.06,0.22 0.01,0.02 0.03,0.05 0.06,0.08zm0.03 -0.12c0.04,0.07 0.1,0.12 0.19,0.15l0.01 -0.64c-0.1,0.03 -0.17,0.09 -0.21,0.16 -0.03,0.05 -0.04,0.11 -0.04,0.17 0,0.06 0.02,0.11 0.05,0.16zm-1.36 -0.55c0.08,0.05 0.14,0.11 0.18,0.18 0.03,0.05 0.04,0.1 0.05,0.16 -0.01,-0.19 -0.1,-0.28 -0.23,-0.34zm0.1 0.23c-0.04,-0.08 -0.11,-0.14 -0.21,-0.17l0 0.64c0.09,-0.02 0.16,-0.08 0.2,-0.15 0.03,-0.05 0.04,-0.1 0.05,-0.16 0,-0.06 -0.01,-0.11 -0.04,-0.16zm0.13 0.2c-0.01,0.06 -0.03,0.12 -0.06,0.17 -0.03,0.05 -0.07,0.1 -0.12,0.13 0.1,-0.06 0.17,-0.15 0.18,-0.3zm-0.44 -0.24l0 -0.25c-0.07,-0.01 -0.15,-0.02 -0.23,-0.03l-0.08 -0.01c-0.32,-0.04 -0.63,-0.08 -0.95,-0.11l1.01 0.12 0.01 0.04c0.01,-0.03 0.05,-0.03 0.17,-0.02l0.03 0.01 0.01 0.02c0.01,0.03 0.03,0.12 0.03,0.23zm3.43 0.37c0.04,0.06 0.1,0.11 0.19,0.14l0.01 -0.64c-0.1,0.03 -0.17,0.09 -0.21,0.16 -0.03,0.05 -0.04,0.11 -0.04,0.17 0,0.06 0.02,0.12 0.05,0.17zm-3.81 -0.57l-0.89 -0.11 -0.01 0.99 0.93 -0.11 0 0c-0.02,-0.02 -0.03,-0.05 -0.03,-0.08 0.01,-0.03 0.04,-0.05 0.13,-0.03 0.11,0.02 0.12,0.06 0.11,0.11l0 0.01c0.01,-0.01 0.02,-0.02 0.03,-0.03 0.02,-0.06 0.02,-0.2 0.02,-0.35 0,-0.16 0,-0.32 -0.02,-0.37 -0.02,-0.01 -0.02,-0.03 -0.03,-0.04 0.02,0.04 0.02,0.1 -0.13,0.16l-0.04 0.02 -0.02 -0.04c-0.04,-0.06 -0.05,-0.1 -0.05,-0.13zm0.14 0.01c0,0.01 0,0.02 -0.01,0.03 0.02,-0.01 0.02,-0.02 0.02,-0.02l-0.01 -0.01zm0 0.77c0,-0.01 0,-0.02 0.01,-0.03l0 0c0,-0.01 0,0 -0.03,0l0.02 0.03zm-0.04 -0.06c0,-0.01 0,-0.01 -0.01,-0.01 0,0.01 0,0.01 0.01,0.01zm-0.84 -2.12c0.24,0.02 0.44,0.05 0.61,0.11l0.08 0.04c-0.04,-0.02 -0.08,-0.04 -0.12,-0.05 -0.28,-0.1 -0.45,-0.1 -0.57,-0.1zm0.57 0.2c-0.19,-0.07 -0.43,-0.1 -0.73,-0.11l0 1.01c0.33,0.04 0.65,0.08 0.98,0.12l0.08 0.01c0.42,0.05 0.75,0.09 0.75,0.55 0,0.24 -0.09,0.37 -0.23,0.45 -0.14,0.07 -0.33,0.1 -0.52,0.12l-0.36 0.04c-0.23,0.03 -0.46,0.06 -0.69,0.08l0 1.02c0.3,-0.01 0.52,-0.04 0.71,-0.11 0.2,-0.08 0.37,-0.19 0.56,-0.35 0.03,-0.03 0.06,-0.06 0.1,-0.09 0.27,-0.29 0.43,-0.67 0.44,-1.08 0.01,-0.4 -0.11,-0.82 -0.41,-1.17 -0.04,-0.04 -0.08,-0.08 -0.12,-0.12 -0.18,-0.17 -0.35,-0.29 -0.56,-0.37zm0.33 0.06c0.1,0.07 0.2,0.15 0.3,0.24 0.04,0.04 0.08,0.09 0.12,0.13 0.3,0.36 0.44,0.78 0.44,1.19 0,-0.27 -0.05,-0.55 -0.16,-0.8 -0.1,-0.22 -0.25,-0.41 -0.44,-0.57 -0.08,-0.06 -0.16,-0.13 -0.26,-0.19zm0.37 2.76c-0.03,0.03 -0.06,0.06 -0.09,0.08 -0.2,0.17 -0.37,0.29 -0.58,0.36 -0.2,0.08 -0.43,0.11 -0.73,0.12 0.14,0 0.27,-0.01 0.39,-0.02 0.14,-0.02 0.27,-0.06 0.42,-0.13 0.24,-0.1 0.43,-0.25 0.59,-0.41zm2.88 -3.22c-0.37,-0.01 -0.77,-0.02 -1.07,0.01l0 1.45c0.17,0.06 0.29,0.16 0.37,0.26 0.05,0.09 0.08,0.18 0.08,0.27 0,0.1 -0.04,0.19 -0.09,0.27 -0.08,0.11 -0.2,0.2 -0.36,0.25l0 1.45 3.05 0.01 0 -0.09c-0.1,-0.02 -0.19,-0.02 -0.29,-0.03 -0.31,-0.02 -0.63,-0.05 -1.11,-0.46 -0.07,-0.06 -0.16,-0.15 -0.23,-0.26 -0.08,-0.1 -0.15,-0.21 -0.2,-0.32 -0.18,-0.39 -0.22,-0.8 -0.15,-1.18 0.07,-0.4 0.27,-0.76 0.56,-1.01 0.51,-0.45 0.88,-0.48 1.16,-0.49 0.1,-0.01 0.18,-0.02 0.26,-0.04l0 -0.06c-0.17,-0.05 -1.01,-0.03 -1.37,-0.03l-0.15 0.01c-0.14,0 -0.3,-0.01 -0.46,-0.01zm-3.2 0.38c0.1,0.06 0.19,0.13 0.27,0.2 0.2,0.16 0.36,0.37 0.46,0.61 0.14,0.31 0.2,0.66 0.16,1.01 -0.04,0.35 -0.18,0.69 -0.41,0.98 -0.18,0.22 -0.41,0.4 -0.71,0.54 -0.16,0.07 -0.3,0.11 -0.45,0.13 -0.14,0.02 -0.28,0.03 -0.43,0.03 0,0.06 0,0.09 0,0.1 0.01,0.01 0,-0.01 0.01,-0.01 0.02,0 0.04,0 0.07,0l2.96 0 0 -1.46c-0.17,-0.05 -0.3,-0.15 -0.37,-0.27 -0.04,-0.08 -0.06,-0.17 -0.06,-0.26 0,-0.09 0.02,-0.18 0.07,-0.25 0.07,-0.12 0.19,-0.22 0.37,-0.26l0 -1.46 -3.05 0 0 0.07c0.02,0.03 0.07,0.03 0.14,0.03 0.13,-0.01 0.31,-0.01 0.62,0.1 0.13,0.05 0.25,0.11 0.35,0.17zm-1.22 3.71l6.51 0.01 0 -4.2 -6.5 0 -0.01 4.19zm6.56 0.11l-6.65 -0.01c0,-1.46 0,-2.93 0,-4.39 2.23,0 4.46,0 6.69,0 0,1.47 0.01,2.93 0.01,4.4l-0.05 0z"/>
  </g>
 </g>
</svg>
