<?xml version="1.0" encoding="UTF-8"?>
<!DOCTYPE svg PUBLIC "-//W3C//DTD SVG 1.1//EN" "http://www.w3.org/Graphics/SVG/1.1/DTD/svg11.dtd">
<!-- Creator: CorelDRAW 2019 (64-Bit) -->
<svg xmlns="http://www.w3.org/2000/svg" xml:space="preserve" width="68px" height="60px" version="1.1" style="shape-rendering:geometricPrecision; text-rendering:geometricPrecision; image-rendering:optimizeQuality; fill-rule:evenodd; clip-rule:evenodd"
viewBox="0 0 9.94 8.67"
 xmlns:xlink="http://www.w3.org/1999/xlink"
 xmlns:xodm="http://www.corel.com/coreldraw/odm/2003">
 <defs>
  <style type="text/css">
   <![CDATA[
    .fil0 {fill:#FEFEFE}
   ]]>
  </style>
 </defs>
 <g id="Layer_x0020_1">
  <metadata id="CorelCorpID_0Corel-Layer"/>
  <path class="fil0" d="M4.48 5.3l0.34 0.01 0 1 0.4 0.04c0.07,-0.3 0.03,-0.73 0.03,-1.02l0.35 -0.03c0,0.31 0.01,0.64 0,0.94 -0.02,0.38 -0.13,0.45 -0.55,0.46 -0.72,0.01 -0.57,-0.34 -0.57,-1.4zm2 -0.88c0,0 -0.12,0.01 -0.01,0.26 0.11,0.02 -0.01,0.04 0.09,0.01 0.08,-0.02 0.06,-0.02 0.1,-0.05l0.14 -0.03 0 -0.17 -0.32 -0.02zm-3.51 2.25l-0.36 0.01c0,-0.1 0,-0.21 0,-0.31l-0.04 -0.22 -0.38 0c0.01,0.59 0.12,0.55 -0.35,0.55l-0.03 -1.4 0.38 0 0 0.48 0.4 0.03 0 -0.49 0.38 -0.02 0 1.37zm6.55 -4.07l0.03 0.53c-0.18,0 -0.46,-0.04 -0.61,0.04l0.01 4.44 -2.58 0.01c-0.52,0.62 -1.29,0.91 -2.1,0.47 -0.1,-0.06 -0.21,-0.13 -0.3,-0.2 -0.14,-0.11 -0.11,-0.15 -0.25,-0.27l-2.76 0 0 -4.46 -0.57 -0.01 0 -0.51c0.05,-0.04 4.42,-2.18 4.56,-2.22 0.16,-0.03 4.02,1.96 4.57,2.18zm-3.06 1.42c0.02,0.04 -0.09,0.17 0.23,0.1 0.09,-0.02 0.07,-0.03 0.11,-0.06 -0.03,-0.14 0.05,-0.13 -0.15,-0.15 -0.29,-0.02 -0.16,0.08 -0.19,0.11zm-2.91 2.32c-0.06,-0.09 -0.07,-0.1 -0.08,-0.24 -0.01,-0.07 -0.01,-0.23 0,-0.3 0.04,-0.26 0.15,-0.21 0.44,-0.18l0.02 0.71 -0.38 0.01zm-1.88 -3.83c0.35,0 0.69,0 1.04,0 0.38,0 0.43,-0.17 0.67,-0.34 1.11,-0.75 2.12,-0.74 3.21,0.05 0.49,0.36 0.18,0.31 1.52,0.29l0.25 -0.01 -3.32 -1.53c-0.14,-0.02 -3.27,1.45 -3.37,1.54zm-1.67 -0.14l0 1.17 0.58 0 0 4.46c0.83,0 1.65,0 2.48,0 0.69,0 0.45,0.07 0.9,0.35 0.77,0.49 1.66,0.41 2.37,-0.13 0.16,-0.12 0.17,-0.22 0.45,-0.22 0.82,-0.02 1.72,-0.02 2.54,0l0 -4.45 0.62 -0.02 0 -1.16c-0.57,-0.18 -4.73,-2.39 -4.97,-2.37 -0.13,0.01 -3.14,1.51 -3.7,1.78l-1.27 0.59zm3.13 3.95c-0.05,-0.33 -0.09,-0.9 0.26,-0.99 0.17,-0.04 0.42,-0.04 0.59,-0.01 0.26,0.04 0.28,0.08 0.32,0.34 0.06,0.39 0.07,0.9 -0.28,1 -0.4,0.11 -0.84,0.03 -0.89,-0.34zm3.93 -1.02l0.96 0.01 -0.01 0.33 -0.51 0.02c-0.13,0.04 -0.05,-0.04 -0.1,0.09 0.14,0.1 0.13,0.05 0.14,0.05 0.02,0 0.1,0.01 0.13,0.01 0.1,0 0.19,-0.01 0.3,0l0 0.29 -0.57 0 0.01 0.25 0.61 0.01 0 0.33 -0.96 0 0 -1.39zm-0.58 0.85c-0.37,0 -0.67,0.05 -0.72,-0.32 -0.11,-0.65 0.43,-0.54 1.07,-0.52l-0.02 0.33c-0.19,0 -0.59,-0.13 -0.69,0.06 0.14,0.28 0.69,-0.08 0.74,0.45 0.07,0.73 -0.62,0.56 -1.08,0.5l0 -0.3c0.69,0 0.69,0.08 0.7,-0.2zm-2.77 -2.54l0.36 0.01 0.02 1 0.56 0.01 0 0.29c-0.1,0.12 -0.05,0.07 -0.48,0.07 -0.16,-0.01 -0.32,0 -0.47,-0.01l0.01 -1.37zm1.52 1.36c-0.66,0 -0.51,-0.44 -0.51,-1.35l0.38 -0.01 0.01 1.03 0.39 -0.01 0 -1.01 0.38 0.01c0,0.28 0.02,0.65 0,0.92 -0.04,0.42 -0.28,0.42 -0.65,0.42zm0.85 -1.35c0.72,-0.02 1.35,-0.17 1,0.68 0.24,0.18 0.18,0.51 -0.06,0.63 -0.18,0.09 -0.72,0.04 -0.95,0.04l0.01 -1.35zm-3.26 0.99c0.41,0.05 0.58,-0.06 0.66,0.1 0.16,0.28 -0.19,0.28 -0.35,0.27 -0.66,-0.03 -0.71,-0.05 -0.71,-0.74 0,-0.58 0.16,-0.71 0.77,-0.66 0.2,0.02 0.46,0.13 0.26,0.34 -0.1,0.11 -0.49,0.04 -0.66,0.04 -0.02,0.24 -0.05,0.43 0.03,0.65zm2.21 -1.52c0.07,-0.4 0.4,-0.43 0.89,-0.38 -0.01,0.16 -0.16,0.24 -0.31,0.31 -0.19,0.1 -0.35,0.07 -0.58,0.07zm-0.94 -0.4c0.18,0.01 0.39,0.01 0.56,0.05 0.23,0.06 0.24,0.09 0.26,0.34 -0.46,0.04 -0.66,-0.04 -0.87,-0.31 -0.08,-0.06 -0.1,-0.06 0.05,-0.08zm0.77 -0.28c0.19,-0.12 0.33,0.01 0.27,0.27 -0.29,0.09 -0.32,-0.04 -0.27,-0.27zm-3.64 0.53l0 4.21c0.34,0.09 2.12,0.03 2.6,0.03 0.29,0.29 0.55,0.56 1.19,0.58 0.97,0.03 1.04,-0.55 1.24,-0.58l2.4 0 0 -4.26 -2.1 0c-0.46,-0.79 -2.05,-1.05 -2.98,-0.25 -0.27,0.22 -0.18,0.26 -0.64,0.26 -0.46,-0.01 -1.29,-0.05 -1.71,0.01z"/>
 </g>
</svg>
