<?xml version="1.0" encoding="UTF-8"?>
<!DOCTYPE svg PUBLIC "-//W3C//DTD SVG 1.1//EN" "http://www.w3.org/Graphics/SVG/1.1/DTD/svg11.dtd">
<!-- Creator: CorelDRAW 2019 (64-Bit) -->
<svg xmlns="http://www.w3.org/2000/svg" xml:space="preserve" width="62px" height="65px" version="1.1" style="shape-rendering:geometricPrecision; text-rendering:geometricPrecision; image-rendering:optimizeQuality; fill-rule:evenodd; clip-rule:evenodd"
viewBox="0 0 5.35 5.63"
 xmlns:xlink="http://www.w3.org/1999/xlink"
 xmlns:xodm="http://www.corel.com/coreldraw/odm/2003">
 <defs>
  <style type="text/css">
   <![CDATA[
    .fil0 {fill:#FEFEFE}
   ]]>
  </style>
 </defs>
 <g id="Layer_x0020_1">
  <metadata id="CorelCorpID_0Corel-Layer"/>
  <path class="fil0" d="M4.39 2.11l0.71 0c0.14,0 0.25,0.11 0.25,0.25l0 2.66c0,0.14 -0.11,0.25 -0.25,0.25l-0.71 0 0 0.36 -4.06 0 0 -3.96 -0.11 0c-0.12,0 -0.22,-0.1 -0.22,-0.22l0 -0.49c0,-0.12 0.11,-0.18 0.22,-0.22l2.1 -0.74 2.18 0.74c0.11,0.04 0.22,0.1 0.22,0.22l0 0.49c0,0.12 -0.1,0.22 -0.22,0.22l-0.11 0 0 0.44zm0.52 0.87l-0.06 -0.08 0 0 -0.06 0 0 0.08 -0.07 0 0 -0.3 0.13 0c0.03,0 0.05,0.01 0.07,0.02 0.02,0 0.03,0.02 0.04,0.03 0.01,0.02 0.02,0.04 0.02,0.06 0,0.02 -0.01,0.04 -0.02,0.06 -0.01,0.02 -0.02,0.03 -0.04,0.04l0.06 0.09 -0.07 0zm0 -0.19c0,-0.02 -0.01,-0.03 -0.02,-0.04 -0.01,-0.01 -0.02,-0.01 -0.05,-0.01l-0.05 0 0 0.1 0.05 0c0.03,0 0.04,0 0.05,-0.01 0.01,-0.01 0.02,-0.02 0.02,-0.04zm0.04 0.73l0 0.06 -0.23 0 0 -0.31 0.23 0 0 0.06 -0.16 0 0 0.07 0.14 0 0 0.05 -0.14 0 0 0.07 0.16 0zm0.04 0.35l0 0.3 -0.05 0 -0.15 -0.18 0 0.18 -0.07 0 0 -0.3 0.06 0 0.15 0.18 0 -0.18 0.06 0zm-0.21 0.65l-0.1 0 0 -0.06 0.27 0 0 0.06 -0.1 0 0 0.24 -0.07 0 0 -0.24zm-4.36 -3.52l0.19 0c0.04,0 0.08,0 0.12,0.02 0.03,0.02 0.06,0.04 0.08,0.07 0.02,0.04 0.03,0.07 0.03,0.11 0,0.05 -0.01,0.08 -0.03,0.12 -0.02,0.03 -0.05,0.05 -0.08,0.07 -0.04,0.02 -0.08,0.02 -0.12,0.02l-0.19 0 0 -0.41zm0.18 0.33c0.04,0 0.08,-0.01 0.1,-0.03 0.03,-0.02 0.04,-0.06 0.04,-0.1 0,-0.04 -0.01,-0.07 -0.04,-0.09 -0.02,-0.02 -0.06,-0.04 -0.1,-0.04l-0.09 0 0 0.26 0.09 0zm0.52 0.09c-0.05,0 -0.09,-0.01 -0.12,-0.03 -0.04,-0.02 -0.07,-0.04 -0.08,-0.07 -0.02,-0.04 -0.03,-0.07 -0.03,-0.12 0,-0.04 0.01,-0.07 0.03,-0.11 0.01,-0.03 0.04,-0.06 0.08,-0.07 0.03,-0.02 0.07,-0.03 0.12,-0.03 0.04,0 0.08,0.01 0.11,0.03 0.04,0.01 0.07,0.04 0.09,0.07 0.02,0.04 0.03,0.07 0.03,0.11 0,0.05 -0.01,0.08 -0.03,0.12 -0.02,0.03 -0.05,0.05 -0.09,0.07 -0.03,0.02 -0.07,0.03 -0.11,0.03zm0 -0.08c0.02,0 0.04,-0.01 0.06,-0.02 0.02,-0.01 0.04,-0.03 0.05,-0.05 0.01,-0.02 0.02,-0.04 0.02,-0.07 0,-0.02 -0.01,-0.04 -0.02,-0.06 -0.01,-0.03 -0.03,-0.04 -0.05,-0.05 -0.02,-0.01 -0.04,-0.02 -0.06,-0.02 -0.03,0 -0.05,0.01 -0.07,0.02 -0.02,0.01 -0.04,0.02 -0.05,0.05 -0.01,0.02 -0.02,0.04 -0.02,0.06 0,0.03 0.01,0.05 0.02,0.07 0.01,0.02 0.03,0.04 0.05,0.05 0.02,0.01 0.04,0.02 0.07,0.02zm0.57 0.07l-0.08 -0.11 -0.01 0 -0.08 0 0 0.11 -0.1 0 0 -0.41 0.18 0c0.04,0 0.07,0 0.1,0.01 0.02,0.02 0.05,0.03 0.06,0.06 0.02,0.02 0.02,0.05 0.02,0.08 0,0.03 0,0.06 -0.02,0.08 -0.01,0.02 -0.04,0.04 -0.06,0.05l0.09 0.13 -0.1 0zm-0.01 -0.26c0,-0.03 0,-0.04 -0.02,-0.06 -0.01,-0.01 -0.04,-0.02 -0.07,-0.02l-0.07 0 0 0.15 0.07 0c0.03,0 0.06,-0.01 0.07,-0.02 0.02,-0.01 0.02,-0.03 0.02,-0.05zm0.56 0.26l0 -0.25 -0.12 0.21 -0.05 0 -0.12 -0.2 0 0.24 -0.09 0 0 -0.41 0.08 0 0.16 0.26 0.15 -0.26 0.08 0 0 0.41 -0.09 0zm0.19 -0.41l0.1 0 0 0.41 -0.1 0 0 -0.41zm0.29 0.07l-0.14 0 0 -0.07 0.37 0 0 0.07 -0.14 0 0 0.34 -0.09 0 0 -0.34zm0.48 0.35c-0.05,0 -0.08,-0.01 -0.12,-0.03 -0.03,-0.02 -0.06,-0.04 -0.08,-0.07 -0.02,-0.04 -0.03,-0.07 -0.03,-0.12 0,-0.04 0.01,-0.07 0.03,-0.11 0.02,-0.03 0.05,-0.06 0.08,-0.07 0.04,-0.02 0.07,-0.03 0.12,-0.03 0.04,0 0.08,0.01 0.12,0.03 0.03,0.01 0.06,0.04 0.08,0.07 0.02,0.04 0.03,0.07 0.03,0.11 0,0.05 -0.01,0.08 -0.03,0.12 -0.02,0.03 -0.05,0.05 -0.08,0.07 -0.04,0.02 -0.08,0.03 -0.12,0.03zm0 -0.08c0.02,0 0.05,-0.01 0.07,-0.02 0.02,-0.01 0.03,-0.03 0.04,-0.05 0.01,-0.02 0.02,-0.04 0.02,-0.07 0,-0.02 -0.01,-0.04 -0.02,-0.06 -0.01,-0.03 -0.02,-0.04 -0.04,-0.05 -0.02,-0.01 -0.05,-0.02 -0.07,-0.02 -0.03,0 -0.05,0.01 -0.07,0.02 -0.02,0.01 -0.03,0.02 -0.05,0.05 -0.01,0.02 -0.01,0.04 -0.01,0.06 0,0.03 0,0.05 0.01,0.07 0.02,0.02 0.03,0.04 0.05,0.05 0.02,0.01 0.04,0.02 0.07,0.02zm0.57 0.07l-0.08 -0.11 -0.01 0 -0.08 0 0 0.11 -0.1 0 0 -0.41 0.18 0c0.04,0 0.07,0 0.1,0.01 0.03,0.02 0.05,0.03 0.06,0.06 0.02,0.02 0.03,0.05 0.03,0.08 0,0.03 -0.01,0.06 -0.03,0.08 -0.01,0.02 -0.03,0.04 -0.06,0.05l0.09 0.13 -0.1 0zm0 -0.26c0,-0.03 -0.01,-0.04 -0.03,-0.06 -0.01,-0.01 -0.03,-0.02 -0.06,-0.02l-0.08 0 0 0.15 0.08 0c0.03,0 0.05,-0.01 0.06,-0.02 0.02,-0.01 0.03,-0.03 0.03,-0.05zm0.37 0.12l0 0.14 -0.1 0 0 -0.15 -0.16 -0.26 0.1 0 0.11 0.18 0.12 -0.18 0.09 0 -0.16 0.27zm-3.28 1.42l1.38 0 0 -0.62 -1.38 0 0 0.62zm1.62 2.44l1.37 0 0 -0.62 -1.37 0 0 0.62zm0 -0.81l1.37 0 0 -0.62 -1.37 0 0 0.62zm0 -0.81l1.37 0 0 -0.63 -1.37 0 0 0.63zm0 -0.82l1.37 0 0 -0.62 -1.37 0 0 0.62zm-1.62 2.44l1.38 0 0 -0.62 -1.38 0 0 0.62zm0 -0.81l1.38 0 0 -0.62 -1.38 0 0 0.62zm0 -0.81l1.38 0 0 -0.63 -1.38 0 0 0.63z"/>
 </g>
</svg>
