<?xml version="1.0" encoding="UTF-8"?>
<!DOCTYPE svg PUBLIC "-//W3C//DTD SVG 1.1//EN" "http://www.w3.org/Graphics/SVG/1.1/DTD/svg11.dtd">
<!-- Creator: CorelDRAW 2019 (64-Bit) -->
<svg xmlns="http://www.w3.org/2000/svg" xml:space="preserve" width="57px" height="54px" version="1.1" style="shape-rendering:geometricPrecision; text-rendering:geometricPrecision; image-rendering:optimizeQuality; fill-rule:evenodd; clip-rule:evenodd"
viewBox="0 0 41.11 39.19"
 xmlns:xlink="http://www.w3.org/1999/xlink"
 xmlns:xodm="http://www.corel.com/coreldraw/odm/2003">
 <defs>
  <style type="text/css">
   <![CDATA[
    .fil0 {fill:#FEFEFE}
   ]]>
  </style>
 </defs>
 <g id="Layer_x0020_1">
  <metadata id="CorelCorpID_0Corel-Layer"/>
  <path class="fil0" d="M4.96 28.21c-5.11,-7.06 0.16,-13.95 5.72,-15.68 -1.62,1.33 -4.22,4.08 -5.21,5.92 -2.21,4.1 -1.05,5.7 -0.51,9.76zm31.72 -20.28l-0.15 -1.02c1.75,-0.22 1.54,-1.6 0.76,-2.93 -0.35,1.62 -0.48,2.33 -2.29,2.58 0.57,0.65 -0.15,0.21 0.84,0.59l0.02 0.36c-1.35,2.02 -5.91,3.12 -2.71,6.97l6.63 0.07c2.12,-3.75 -0.51,-5.34 -3.1,-6.62zm-0.87 -2.63c0.34,-0.38 1.35,0.12 0.03,-1.29 -0.91,1.58 -0.43,0.79 -0.03,1.29zm-20.2 -3.6l0.72 0.92c0.25,0.71 0.08,0.56 -0.08,1.13 1.12,-0.37 0.79,-0.67 2.05,-0.05 -0.19,-1.66 -0.25,-1.18 0.69,-1.94 -1.36,-0.15 -0.98,-0.01 -1.67,-0.92 -0.03,-0.05 -0.09,-0.17 -0.14,-0.24 -0.43,1.49 0.08,1 -1.57,1.1zm23.8 37.49l-0.49 -21.13 1.29 -0.28 0.9 -2.66 -9.5 0 0.01 2.23 0.58 0.31c0.09,0.04 0.19,0.09 0.29,0.12l1.34 0.28c0.05,1.29 -0.36,12.87 -0.53,13.38 -0.34,1 -1.16,0.69 -2.61,0.66l-23.81 -0.02c-5.66,-0.03 -6.84,1.56 -6.88,7.1l39.41 0.01zm-19.67 -33.68c-4.2,0.62 -5.93,-1.5 -5.07,-5.51 -2.97,1.79 -2.11,6.03 1.4,6.96 -0.74,1.68 -1.33,1.51 -3.11,2.27 -9.85,4.2 -15.93,12.37 -7.86,22.16l23.21 -0.04c0.99,-2.29 2.74,-3.86 3.2,-7.43 1.5,-11.65 -13.05,-14.27 -14.71,-16.51l0.99 -0.45c1.73,-0.7 1.29,-0.39 1.95,-1.45z"/>
 </g>
</svg>
