<?xml version="1.0" encoding="UTF-8"?>
<!DOCTYPE svg PUBLIC "-//W3C//DTD SVG 1.1//EN" "http://www.w3.org/Graphics/SVG/1.1/DTD/svg11.dtd">
<!-- Creator: CorelDRAW 2019 (64-Bit) -->
<svg xmlns="http://www.w3.org/2000/svg" xml:space="preserve" width="63px" height="49px" version="1.1" style="shape-rendering:geometricPrecision; text-rendering:geometricPrecision; image-rendering:optimizeQuality; fill-rule:evenodd; clip-rule:evenodd"
viewBox="0 0 4.52 3.51"
 xmlns:xlink="http://www.w3.org/1999/xlink"
 xmlns:xodm="http://www.corel.com/coreldraw/odm/2003">
 <defs>
  <style type="text/css">
   <![CDATA[
    .fil0 {fill:#FEFEFE}
   ]]>
  </style>
 </defs>
 <g id="Layer_x0020_1">
  <metadata id="CorelCorpID_0Corel-Layer"/>
  <g id="_1539548331472">
   <path class="fil0" d="M0.9 1.11c0.08,-0.09 -0.08,-0.03 0.13,-0.07 0.27,-0.04 2.55,0.01 2.6,0.02 0.03,0.23 0,0.12 -0.03,0.16l-2.68 0.01 -0.02 -0.12zm0.57 -0.4c-0.65,0.01 -0.52,0.05 -0.57,-0.11 0.18,-0.11 1.67,-0.04 2.12,-0.04 0.11,0 0.24,-0.01 0.35,-0.01 0.35,0.01 0.26,0.1 0.26,0.1 -0.01,0.01 -0.02,0.02 -0.04,0.02l-2.12 0.04zm-1.02 -0.5c-0.02,0 -0.34,-0.08 -0.26,0.25 0.1,0.18 -0.03,0.04 0.17,0.1 0.01,0 0.06,0.01 0.08,0.01 0.09,0.02 0.06,0 0.11,0.03 -0.06,0.2 -0.13,0.07 -0.34,0.15l-0.02 0.3c0.21,0.01 0.28,-0.04 0.37,0.08 -0.09,0.19 0.02,0.03 -0.16,0.09 -0.01,0.01 -0.29,-0.04 -0.21,0.25 0.09,0.15 0.02,0.1 0.26,0.1 0.18,0.03 -0.09,-0.1 0.08,0.07 0.01,0.01 0.03,0.05 0.04,0.06 0.03,0.02 -0.06,0.09 0.17,0.06 0.38,-0.04 -0.06,-0.14 0.3,-0.19l2.47 0c0.24,0.06 0.01,-0.01 0.19,0.19 0.03,0 0.11,0 0.14,-0.01 0.13,-0.03 0.12,-0.07 0.17,-0.11 0.21,-0.21 0.34,0.12 0.32,-0.4 -0.32,-0.02 -0.29,0.01 -0.36,-0.11 0.11,-0.12 0.15,-0.06 0.36,-0.08l0 -0.3c-0.21,-0.08 -0.28,0.05 -0.35,-0.15 0.01,-0.01 0.03,-0.02 0.03,-0.01l0.32 -0.04c0.03,-0.46 -0.03,-0.3 -0.24,-0.34 -0.17,-0.02 -0.03,-0.17 -0.24,-0.2 -0.49,0.02 0.01,0.12 -0.34,0.2l-2.57 0c-0.08,-0.15 0.03,-0.24 -0.24,-0.2 -0.25,0.03 -0.06,0.14 -0.25,0.2z"/>
   <path class="fil0" d="M0.51 3.46c0.08,-0.19 0.01,-0.67 0.03,-0.83 0.03,-0.26 -0.03,-0.13 0.11,-0.18 0.14,0.09 0.06,0.49 0.09,0.67 0.04,0.02 -0.01,0.05 0.15,0.05 0.24,-0.01 0.09,-0.01 0.15,-0.05l0.04 -0.67 2.37 0.01 0.04 0.67c0.01,0 0.02,0.05 0.16,0.04 0.17,-0.01 0.09,-0.02 0.14,-0.06 0.02,-0.15 0.01,-0.23 0.02,-0.38 0,-0.22 -0.05,-0.22 0.08,-0.27 0.15,-0.01 0.11,0.05 0.1,0.47 0,0.17 -0.01,0.41 0.03,0.54 0.11,0.04 0.19,0.08 0.3,-0.03 0.04,-0.19 0.02,-0.41 0.02,-0.61 -0.01,-0.44 -0.05,-0.28 0.18,-0.42 0,-0.59 0.13,-0.49 -0.92,-0.49l-2.9 0c-0.37,0 -0.79,-0.14 -0.68,0.37 0.04,0.23 -0.01,0.09 0.17,0.2l0.02 0.96c0.05,0.04 -0.01,0.06 0.15,0.06 0.21,0 0.11,-0.03 0.15,-0.05z"/>
  </g>
 </g>
</svg>
