<?xml version="1.0" encoding="UTF-8"?>
<!DOCTYPE svg PUBLIC "-//W3C//DTD SVG 1.1//EN" "http://www.w3.org/Graphics/SVG/1.1/DTD/svg11.dtd">
<!-- Creator: CorelDRAW 2019 (64-Bit) -->
<svg xmlns="http://www.w3.org/2000/svg" xml:space="preserve" width="68px" height="49px" version="1.1" style="shape-rendering:geometricPrecision; text-rendering:geometricPrecision; image-rendering:optimizeQuality; fill-rule:evenodd; clip-rule:evenodd"
viewBox="0 0 69.01 49.21"
 xmlns:xlink="http://www.w3.org/1999/xlink"
 xmlns:xodm="http://www.corel.com/coreldraw/odm/2003">
 <defs>
  <style type="text/css">
   <![CDATA[
    .fil0 {fill:#EEEEEF}
   ]]>
  </style>
 </defs>
 <g id="Layer_x0020_1">
  <metadata id="CorelCorpID_0Corel-Layer"/>
  <path class="fil0" d="M57.22 16.26l8.06 -0.02 1.36 0.09 -0.01 1.38 0.01 13.55 -0.04 1.75 -9.45 0.03 -0.04 -1.41 0.11 -15.37zm-54.86 0.01l9.54 -0.01 -0.06 16.78 -9.47 -0.08 -0.01 -16.69zm33.41 -1.32c4.45,0.02 8.59,4.87 8.55,9.72 -0.04,5.02 -3.93,9.49 -8.56,9.68l0.01 -19.4zm-2.57 19.4c-4.58,-0.19 -8.47,-4.66 -8.51,-9.68 -0.04,-4.85 4.09,-9.7 8.56,-9.72l-0.05 19.4zm2.61 -31.9l30.82 0.04 0.02 11.2 -12.04 0 0.15 21.83 11.89 0.1 -0.13 11.2 -30.76 -0.05 0.11 -9.74c13.93,-3.17 13.78,-18.36 4.21,-23.45 -1.7,-0.9 -2.58,-0.84 -4.33,-1.43l0.06 -9.7zm-33.38 0l30.81 0.08 0.02 9.62c-1.91,0.65 -2.8,0.58 -4.57,1.56 -9.28,5.16 -9.47,20.21 4.55,23.32l-0.08 9.79 -30.77 -0.03 -0.03 -11.25 12.02 -0.01 -0.02 -21.82 -11.99 -0.08 0.06 -11.18zm-2.43 46.76l68.21 -0.04 0.8 0.04 -0.01 -49.21 -0.79 0.05 -68.14 0 -0.07 49.16z"/>
 </g>
</svg>
