<?xml version="1.0" encoding="UTF-8"?>
<!DOCTYPE svg PUBLIC "-//W3C//DTD SVG 1.1//EN" "http://www.w3.org/Graphics/SVG/1.1/DTD/svg11.dtd">
<!-- Creator: CorelDRAW 2019 (64-Bit) -->
<svg xmlns="http://www.w3.org/2000/svg" xml:space="preserve" width="65px" height="65px" version="1.1" style="shape-rendering:geometricPrecision; text-rendering:geometricPrecision; image-rendering:optimizeQuality; fill-rule:evenodd; clip-rule:evenodd"
viewBox="0 0 12.82 12.83"
 xmlns:xlink="http://www.w3.org/1999/xlink"
 xmlns:xodm="http://www.corel.com/coreldraw/odm/2003">
 <defs>
  <style type="text/css">
   <![CDATA[
    .fil0 {fill:#FEFEFE}
   ]]>
  </style>
 </defs>
 <g id="Layer_x0020_1">
  <metadata id="CorelCorpID_0Corel-Layer"/>
  <path class="fil0" d="M3.34 7.69c0.5,-0.97 5.59,-0.93 6.14,0 0,1.08 0.17,1.31 -0.84,1.58 -1.08,0.29 -3.34,0.29 -4.42,0.02 -1.05,-0.27 -0.88,-0.47 -0.88,-1.6zm-0.85 3.46c-0.95,-1.46 -0.35,-1.15 -0.42,-1.57 -0.03,-0.2 -0.21,-0.25 -0.08,-0.57 0.18,-0.41 0.3,0.08 0.24,-1.38 -0.02,-0.65 -0.55,-0.4 -0.55,-1.06 0.39,-0.39 1.69,-1.18 2.28,-1.54 0.39,-0.23 2.13,-1.41 2.47,-1.39 0.34,0.01 3.02,1.77 3.64,2.16 1.16,0.75 1.38,0.88 0.58,1.52 -0.13,0.1 -0.53,0.39 -0.59,0.47 -0.07,-0.35 -0.04,-0.38 -0.27,-0.6 -0.18,-0.16 -0.31,-0.24 -0.58,-0.35 -1.33,-0.52 -3.53,-0.49 -4.89,-0.21 -0.66,0.13 -1.51,0.39 -1.54,1.12 0,0.17 -0.01,0.79 0.03,0.92 0.05,0.18 0.06,0.05 0.17,0.26 0.09,0.15 0.1,0.19 0.07,0.37 -0.05,0.29 -0.19,0.17 -0.06,0.48 0.2,0.52 -0.24,1.12 -0.5,1.37zm-2.49 1.68l12.82 0 0 -8.98c0,-0.21 -0.16,-0.23 -0.35,-0.33l-2.81 -1.65c-0.33,-0.19 -3.16,-1.88 -3.28,-1.87l-4.86 2.83c-0.28,0.16 -1.52,0.76 -1.52,1.02l0 8.98z"/>
 </g>
</svg>
