<?xml version="1.0" encoding="UTF-8"?>
<!DOCTYPE svg PUBLIC "-//W3C//DTD SVG 1.1//EN" "http://www.w3.org/Graphics/SVG/1.1/DTD/svg11.dtd">
<!-- Creator: CorelDRAW 2019 (64-Bit) -->
<svg xmlns="http://www.w3.org/2000/svg" xml:space="preserve" width="63px" height="57px" version="1.1" style="shape-rendering:geometricPrecision; text-rendering:geometricPrecision; image-rendering:optimizeQuality; fill-rule:evenodd; clip-rule:evenodd"
viewBox="0 0 8.48 7.68"
 xmlns:xlink="http://www.w3.org/1999/xlink"
 xmlns:xodm="http://www.corel.com/coreldraw/odm/2003">
 <defs>
  <style type="text/css">
   <![CDATA[
    .fil0 {fill:#EEEEEF}
   ]]>
  </style>
 </defs>
 <g id="Layer_x0020_1">
  <metadata id="CorelCorpID_0Corel-Layer"/>
  <g id="_1539362414160">
   <path class="fil0" d="M3.31 3.71l2.04 0 0 0.92c-0.26,-0.02 -0.55,-0.35 -1,-0.39 -0.51,-0.05 -0.72,0.2 -1.04,0.33l0 -0.86zm0 -1.53l2.04 0.01 -0.01 0.99 -0.05 0 -1.91 0 -0.07 0 0 -1zm-0.53 -0.92l-0.01 3.32c-0.26,-0.07 -0.47,-0.39 -1.11,-0.34 -0.29,0.06 -0.48,0.17 -0.71,0.3 -0.36,0.19 -0.53,0.08 -0.79,-0.05 -0.2,-0.1 -0.16,0.21 -0.16,0.31 0,0.23 0,0.23 0.22,0.3 0.13,0.05 0.3,0.07 0.45,0.06 0.24,-0.01 0.26,-0.06 0.42,-0.1 0.03,-0.02 0.28,-0.14 0.35,-0.18 0.41,-0.23 0.61,-0.09 1.01,0.13l0.15 0.08c0.03,0.01 0.01,0.01 0.03,0.02 0.04,-0.01 0.22,0.05 0.31,0.05 0.34,0.03 0.56,-0.09 0.85,-0.24 0.47,-0.26 0.6,-0.17 1.06,0.09 0.78,0.43 1.3,-0.14 1.65,-0.23 0.57,-0.14 0.86,0.61 1.73,0.33 0.31,-0.11 0.25,-0.12 0.25,-0.48 0,-0.33 -0.19,-0.11 -0.4,-0.03 -0.43,0.15 -0.72,-0.2 -1.07,-0.31 -0.62,-0.19 -0.98,0.16 -1.14,0.2 0.02,-0.76 0,-1.54 0,-2.3 0,-0.27 -0.03,-0.88 0.05,-1.1 0.09,-0.26 0.31,-0.48 0.61,-0.54 0.17,-0.03 0.38,0.02 0.5,-0.08 0.05,-0.03 0.1,-0.1 0.1,-0.19 0.01,-0.44 -0.77,-0.26 -1.01,-0.14 -0.27,0.12 -0.46,0.31 -0.6,0.55 -0.18,0.3 -0.17,0.58 -0.17,0.97l-2.04 -0.01c0,-0.24 -0.02,-0.45 0.08,-0.66 0.29,-0.58 0.86,-0.41 1.02,-0.48 0.18,-0.08 0.2,-0.36 0.02,-0.47 -0.12,-0.07 -0.51,-0.03 -0.65,0.01 -0.19,0.05 -0.38,0.15 -0.49,0.25 -0.33,0.26 -0.45,0.55 -0.51,0.96z"/>
   <path class="fil0" d="M1.7 7.29c0.4,-0.08 0.64,0.27 1.09,0.36 0.47,0.1 0.8,-0.12 1.13,-0.29 0.44,-0.24 0.74,0.09 1.08,0.23 0.2,0.08 0.42,0.11 0.65,0.07 0.22,-0.04 0.33,-0.12 0.51,-0.21 0.5,-0.25 0.55,-0.25 1.08,0.05 0.36,0.2 0.8,0.25 1.17,0.04 0.1,-0.05 0.07,-0.13 0.07,-0.29 0,-0.12 0.03,-0.28 -0.09,-0.28 -0.09,-0.01 -0.29,0.18 -0.54,0.18 -0.2,-0.01 -0.39,-0.13 -0.54,-0.21 -0.82,-0.46 -1.2,0 -1.64,0.16 -0.43,0.17 -0.72,-0.19 -1.07,-0.3 -0.88,-0.27 -1.16,0.47 -1.74,0.33 -0.1,-0.03 -0.16,-0.07 -0.25,-0.12 -0.08,-0.04 -0.16,-0.08 -0.23,-0.12 -0.77,-0.42 -1.32,0.19 -1.67,0.25 -0.11,0.02 -0.23,0 -0.33,-0.03 -0.19,-0.07 -0.38,-0.3 -0.38,0.08 0,0.08 -0.02,0.29 0.03,0.34 0.03,0.02 0.2,0.09 0.26,0.1 0.71,0.18 1.02,-0.27 1.41,-0.34z"/>
   <path class="fil0" d="M1.52 5.52c-0.02,0.01 -0.12,0.04 -0.16,0.05 -0.05,0.02 -0.09,0.05 -0.14,0.07 -0.36,0.2 -0.57,0.35 -0.95,0.15 -0.04,-0.02 -0.11,-0.07 -0.15,-0.07 -0.07,-0.01 -0.11,0.03 -0.11,0.09 -0.01,0.04 -0.01,0.38 0,0.41 0.04,0.13 0.49,0.2 0.67,0.19 0.59,-0.04 0.83,-0.5 1.29,-0.38 0.18,0.04 0.41,0.2 0.58,0.28 0.21,0.1 0.48,0.13 0.73,0.07 0.43,-0.09 0.79,-0.55 1.26,-0.29 0.41,0.22 0.76,0.46 1.32,0.24 0.2,-0.07 0.39,-0.22 0.58,-0.28 0.27,-0.1 0.47,0.01 0.67,0.12 0.34,0.19 0.6,0.3 1.02,0.21 0.15,-0.03 0.27,-0.11 0.31,-0.11 0.06,-0.08 0.04,-0.15 0.04,-0.27 0,-0.07 0.02,-0.23 -0.03,-0.27 -0.09,-0.08 -0.24,0.08 -0.43,0.13 -0.35,0.09 -0.55,-0.13 -0.9,-0.28 -0.31,-0.14 -0.7,-0.12 -1,0.03 -0.14,0.07 -0.26,0.14 -0.4,0.21 -0.15,0.07 -0.34,0.09 -0.5,0.02l-0.41 -0.21c-0.53,-0.3 -0.96,-0.11 -1.39,0.13 -0.45,0.24 -0.57,0.1 -0.92,-0.07 -0.37,-0.18 -0.5,-0.26 -0.98,-0.17z"/>
  </g>
 </g>
</svg>
