<?xml version="1.0" encoding="UTF-8"?>
<!DOCTYPE svg PUBLIC "-//W3C//DTD SVG 1.1//EN" "http://www.w3.org/Graphics/SVG/1.1/DTD/svg11.dtd">
<!-- Creator: CorelDRAW 2019 (64-Bit) -->
<svg xmlns="http://www.w3.org/2000/svg" xml:space="preserve" width="76px" height="53px" version="1.1" style="shape-rendering:geometricPrecision; text-rendering:geometricPrecision; image-rendering:optimizeQuality; fill-rule:evenodd; clip-rule:evenodd"
viewBox="0 0 4.58 3.22"
 xmlns:xlink="http://www.w3.org/1999/xlink"
 xmlns:xodm="http://www.corel.com/coreldraw/odm/2003">
 <defs>
  <style type="text/css">
   <![CDATA[
    .fil0 {fill:#FEFEFE}
   ]]>
  </style>
 </defs>
 <g id="Layer_x0020_1">
  <metadata id="CorelCorpID_0Corel-Layer"/>
  <g id="_1539353225968">
   <path class="fil0" d="M2.07 0.01c-0.72,0.05 -1.28,0.29 -1.79,0.69 -0.06,0.04 -0.19,0.15 -0.23,0.2 -0.09,0.11 -0.05,0.25 0.04,0.3 0.18,0.13 0.28,-0.05 0.52,-0.23 1.06,-0.79 2.48,-0.73 3.51,0.12 0.05,0.04 0.07,0.07 0.11,0.1 0.22,0.17 0.5,-0.13 0.25,-0.33 -0.7,-0.6 -1.41,-0.92 -2.41,-0.85z"/>
   <path class="fil0" d="M2.07 1.37c0.36,-0.06 0.74,0.03 1.03,0.16 0.48,0.23 0.54,0.54 0.77,0.38 0.21,-0.15 0.01,-0.31 -0.07,-0.39 -0.08,-0.09 -0.23,-0.19 -0.34,-0.26 -0.89,-0.54 -1.99,-0.4 -2.75,0.32 -0.12,0.12 -0.1,0.35 0.1,0.37 0.13,0.01 0.15,-0.04 0.21,-0.1 0.23,-0.24 0.65,-0.43 1.05,-0.48z"/>
   <path class="fil0" d="M2.19 2.29c0.49,-0.06 0.75,0.28 0.85,0.32 0.19,0.08 0.57,-0.17 -0.04,-0.54 -0.39,-0.23 -0.86,-0.26 -1.27,-0.07 -0.85,0.38 -0.37,0.81 -0.08,0.54 0.14,-0.14 0.29,-0.21 0.54,-0.25z"/>
   <path class="fil0" d="M2.04 3.04c0.09,0.32 0.59,0.2 0.5,-0.15 -0.08,-0.29 -0.59,-0.2 -0.5,0.15z"/>
  </g>
 </g>
</svg>
